<svg width="34" height="34" viewBox="0 0 34 34" fill="none" xmlns="http://www.w3.org/2000/svg">
<path d="M25.9335 7.18855C26.3808 5.43233 26.4799 3.21599 26.2213 1.90072C26.1664 1.41261 25.9639 0.731635 25.4558 0.614983C24.9115 0.480906 24.4265 1.03935 24.04 1.54034C23.6582 2.02867 22.1902 3.2711 20.7682 4.20395C18.302 3.4351 15.5899 3.36501 12.9255 4.15714C10.2612 4.94927 8.02529 6.49046 6.37791 8.48511C4.65787 8.47232 2.77093 8.25834 2.2211 8.05827C1.61598 7.82392 0.903928 7.61853 0.521281 8.0282C0.133526 8.4112 0.361877 9.08448 0.528153 9.53948C1.00494 10.7166 2.33541 12.4713 3.70724 13.7205C3.11502 16.013 3.11925 18.4917 3.84286 20.9255C5.96521 28.0641 13.4727 32.1306 20.6113 30.0082C27.7498 27.8859 31.8163 20.3784 29.694 13.2398C28.9788 10.8344 27.654 8.77652 25.9335 7.18855ZM8.4261 17.5733C8.42351 17.5741 8.42351 17.5741 8.42092 17.5749C8.04548 17.6865 7.65247 17.4736 7.53903 17.1015C7.42405 16.7243 7.63615 16.3287 8.01006 16.2119C8.16723 16.1623 11.7422 15.0966 14.0912 16.4949C14.7633 16.8221 15.3608 17.5519 15.6425 18.4996C16.0867 19.9936 15.5796 21.4632 14.5102 21.7812C13.4408 22.0991 12.2132 21.1452 11.769 19.6512C11.505 18.7631 11.5765 17.8851 11.9033 17.2497C11.3611 17.1798 10.8172 17.1893 10.3579 17.2273C9.27643 17.3149 8.43646 17.5702 8.4261 17.5733ZM25.0574 20.8013C25.0325 23.097 22.8041 25.4785 19.5758 26.4496C19.568 26.4519 19.5629 26.4535 19.5577 26.455C19.5499 26.4573 19.5447 26.4589 19.5396 26.4604C16.3025 27.4115 13.1323 26.635 11.8592 24.7224C11.728 24.5275 12.1011 24.1996 12.3187 24.287C13.6512 24.8068 16.2331 25.3298 18.9811 24.5157C21.7249 23.6971 23.6017 21.8484 24.4338 20.6851C24.5691 20.4955 25.0608 20.5664 25.0574 20.8013ZM24.0289 12.9345C24.0263 12.9353 24.0263 12.9353 24.0238 12.936C24.016 12.9383 23.1504 13.1929 22.1949 13.7137C21.7972 13.9305 21.3461 14.214 20.9372 14.5639C21.5554 14.9183 22.0976 15.6138 22.3616 16.5019C22.8058 17.9959 22.2987 19.4656 21.2293 19.7835C20.1599 20.1014 18.9323 19.1476 18.4881 17.6536C18.2064 16.7059 18.308 15.7682 18.6923 15.127C19.8958 12.6725 23.4731 11.6146 23.631 11.5676C24.0098 11.4578 24.4044 11.6759 24.5116 12.0555C24.6198 12.4291 24.4044 12.8229 24.0289 12.9345Z" fill="#1038d6"/>
</svg>
